<svg xmlns="http://www.w3.org/2000/svg" viewBox="0 0 192 192">
  <circle cx="96" cy="96" r="96" fill="url(#g)"/>
  <path d="M65 103l11.4 31.5s1.4 3 2.95 3c1.53 0 24.2-23.6 24.2-23.6l25.2-48.7L65 103z" fill="#C8DAEA"/>
  <path d="M80.1 111.1l-2.2 23.2s-.9 7.1 6.2 0 13.9-12.6 13.9-12.6" fill="#A9C9DD"/>
  <path d="M65.2 104.1l-32.2-10.5s-3.86-1.57-2.63-5.12c.26-.73 1.59-1.39 4.41-3.14 13.57-8.36 111.3-42.04 111.3-42.04s3.56-1.19 5.66-.4c1.03.4 1.69 1.2 1.89 2.72.18 1.36.28 2.62.03 4.44-.02.14-28.35 83.7-28.35 83.7s-1.65 4.08-5.97 4.24c-1.61.06-3.58-.33-5.96-2.3-6.04-5-27.07-19.34-31.7-22.5a.83.83 0 0 1-.36-.64c-.06-.42.4-.94.4-.94s36.58-32.48 37.58-36.09c.08-.26-.21-.39-.59-.28-2.41.72-44.19 27.29-48.87 30.29a2.47 2.47 0 0 1-1.4.22z" fill="white"/>
  <defs>
    <linearGradient id="g" x1="96" y1="0" x2="96" y2="192" gradientUnits="userSpaceOnUse">
      <stop stop-color="#2AABEE"/>
      <stop offset="1" stop-color="#229ED9"/>
    </linearGradient>
  </defs>
</svg>
